<?xml version="1.0" encoding="utf-8"?>
<!-- Generator: Adobe Illustrator 24.1.0, SVG Export Plug-In . SVG Version: 6.00 Build 0)  -->
<svg version="1.1" id="Stabicad" xmlns="http://www.w3.org/2000/svg" xmlns:xlink="http://www.w3.org/1999/xlink" x="0px" y="0px"
	 viewBox="0 0 509 109.7" style="enable-background:new 0 0 509 109.7;" xml:space="preserve">
<style type="text/css">
	.st0{fill:#363545;}
	.st1{fill:#005F9E;}
</style>
<g>
	<g id="Product_23_">
		<path class="st0" d="M134.2,73.7l9.3-4.9C147.6,77,154,81,162.6,81c8.5,0,14.2-2.7,14.2-9c0-6-4.3-8.8-15.8-12.2
			c-13.4-3.9-24.3-7.6-24.3-20.9c0-11.8,9.7-19.6,23.8-19.6c13.7,0,21.8,6.8,26,14.9l-8.6,5.9c-4.1-7-10.1-10.2-17.6-10.2
			c-7.7,0-12.1,2.8-12.1,7.9c0,6.5,5,8.6,16.4,12c13.2,3.9,23.7,8.2,23.7,21.2c0,11.4-9.7,20.3-26.2,20.3
			C148.3,91.4,138.6,84.2,134.2,73.7z"/>
		<path class="st0" d="M199.5,77V49.4h-8.6v-9.2h8.6V22.8h11.6v17.4h12.9v9.2h-12.9v24.7c0,5.4,1.6,7.5,7.3,7.5c1.7,0,3.9-0.3,5-0.7
			v9.1c-1.2,0.3-5.5,0.7-8.5,0.7C202.2,90.7,199.5,86,199.5,77z"/>
		<path class="st0" d="M228.7,78c0-10.8,9.2-18,32.5-20.7v-1.5c0-5-2.6-7.1-8.2-7.1c-7,0-12.6,3.4-16.8,6.8l-5.6-7.2
			c5.4-4.9,13.7-9,24.1-9c13.3,0,18,6.4,18,18v20.6c0,6,0.4,9.7,1.4,12.2h-11.7c-0.7-2.1-1.1-3.6-1.1-6.4c-5.1,5.2-11,7.1-18.4,7.1
			C234.7,90.8,228.7,86.3,228.7,78z M261.2,76.2v-11c-13.8,1.9-21.1,5.3-21.1,10.7c0,3.9,2.7,6,7,6C253,81.9,257.6,79.6,261.2,76.2z
			"/>
		<path class="st0" d="M294.5,84.5v5.5H283V20.5h11.6v26.2c3.3-3.9,8.5-7.5,15.9-7.5c11.4,0,19.7,8.6,19.7,25.8s-8.6,25.8-21.3,25.8
			C303.5,90.8,298.2,88.7,294.5,84.5z M318.6,65.2c0-10.5-4.5-16.1-11.9-16.1c-4.8,0-9.4,3-12.1,6.3v20c3.1,4,7.6,6.2,11.7,6.2
			C315,81.6,318.6,76.3,318.6,65.2z"/>
		<path class="st0" d="M338.7,31.5V21.5h11.8v10.1H338.7z M338.8,90.1V40.2h11.7v49.9H338.8z"/>
		<path class="st0" d="M358.7,65.2c0-19.1,12.9-25.9,24-25.9c12.4,0,17.7,6.9,20.7,14.6l-9.8,3.5c-2-5.6-5.5-8.4-11.1-8.4
			c-6.6,0-12.1,4.3-12.1,16.3c0,10.6,4.3,16.4,11.9,16.4c5.3,0,8.9-1.6,11.7-8.6l9.6,3.5c-3.6,8-9.5,14.7-21.5,14.7
			C370.5,91.1,358.7,83.4,358.7,65.2z"/>
		<path class="st0" d="M408.6,78c0-10.8,9.2-18,32.5-20.7v-1.5c0-5-2.6-7.1-8.2-7.1c-7,0-12.6,3.4-16.8,6.8l-5.6-7.2
			c5.4-4.9,13.7-9,24.1-9c13.3,0,18,6.4,18,18v20.6c0,6,0.4,9.7,1.4,12.2h-11.7c-0.7-2.1-1.1-3.6-1.1-6.4c-5.1,5.2-11,7.1-18.4,7.1
			C414.7,90.8,408.6,86.3,408.6,78z M441.2,76.2v-11C427.3,67,420,70.4,420,75.9c0,3.9,2.7,6,7,6C432.9,81.9,437.5,79.6,441.2,76.2z
			"/>
		<path class="st0" d="M460.3,65.3c0-17.3,8.6-26,21.3-26c5.4,0,10.6,2.2,14.3,6.3v-25h11.6v57.3c0,6,0.4,9.7,1.5,12.2H497
			c-0.7-1.4-1.1-4.2-1.1-6.8c-3.7,4.2-8.5,7.5-15.9,7.5C468.6,90.8,460.3,82.6,460.3,65.3z M495.9,75V55c-3.1-4-7.6-6.2-11.7-6.2
			c-8.7,0-12.3,5.6-12.3,16.7c0,10.5,4.5,15.8,11.9,15.8C488.6,81.3,493.2,78.3,495.9,75z"/>
	</g>
</g>
<g>
	<g>
		<polygon class="st1" points="45,20.2 45,0 5,23.1 22.5,33.2 		"/>
	</g>
	<g>
		<polygon class="st1" points="77.5,13 22.5,44.7 0,31.8 0,83.7 0,83.7 22.5,96.7 45,83.7 45,52 95,23.1 		"/>
	</g>
	<g>
		<polygon class="st1" points="55,57.7 55,77.9 55,77.9 77.5,65 77.5,65 79.9,66.3 100,77.9 100,77.9 100,77.9 100,31.8 		"/>
	</g>
	<g>
		<polygon class="st1" points="77.5,76.5 77.5,76.5 55,89.5 55,89.5 55,109.7 95,86.6 95,86.6 77.5,76.5 		"/>
	</g>
</g>
</svg>
