<?xml version="1.0" encoding="utf-8"?>
<!-- Generator: Adobe Illustrator 24.1.0, SVG Export Plug-In . SVG Version: 6.00 Build 0)  -->
<svg version="1.1" id="ProDesign" xmlns="http://www.w3.org/2000/svg" xmlns:xlink="http://www.w3.org/1999/xlink" x="0px" y="0px"
	 viewBox="0 0 561 112.6" style="enable-background:new 0 0 561 112.6;" xml:space="preserve">
<style type="text/css">
	.st0{fill:#005F9E;}
	.st1{fill:#363545;}
</style>
<g>
	<g>
		<polygon class="st0" points="40,43.3 60,54.9 60,83.7 80,72.2 80,20.2 		"/>
	</g>
	<g>
		<polygon class="st0" points="0,83.7 50,112.6 50,60.6 0,31.8 		"/>
	</g>
	<g>
		<polygon class="st0" points="75.1,11.6 55,0 55,23.2 		"/>
	</g>
	<g>
		<polygon class="st0" points="30.1,37.5 45,29 45,0 5.1,23.1 		"/>
	</g>
</g>
<g>
	<g id="Product_23_">
		<path class="st1" d="M127.8,91.5V21.9h24.3c15,0,26.8,5.3,26.8,21.3c0,16.8-12.9,21.8-27.2,21.8h-12.3v26.4H127.8z M139.5,54.8
			h12.9c10.3,0,15-3.2,15-11.2c0-7.7-4.7-11-15.1-11h-12.8V54.8z"/>
		<path class="st1" d="M186.1,91.5V41.5h11.6v8.2h0.2c3.1-5,8.5-9.1,18-9.1h0.8l-0.4,10.6c-0.6-0.1-2.4-0.2-3.1-0.2
			c-7.4,0-12.1,3.5-15.4,8.8v31.6H186.1z"/>
		<path class="st1" d="M219.4,66.5c0-18.4,12.1-25.9,24.3-25.9c12.1,0,24.3,7.5,24.3,25.9c0,18.2-12.2,25.9-24.3,25.9
			S219.4,84.8,219.4,66.5z M256.4,66.5c0-9.3-3.9-16.1-12.7-16.1c-8.4,0-12.7,6-12.7,16.1c0,9.5,3.9,16.3,12.7,16.3
			C252.1,82.8,256.4,76.8,256.4,66.5z"/>
		<path class="st1" d="M277.5,91.5V21.9h19.8c21.8,0,36.1,10.2,36.1,34.5c0,24.8-14.6,35.1-36.1,35.1H277.5z M289.3,80.9h9.1
			c15.9,0,23.3-7,23.3-24.5c0-16.7-7.5-23.6-23.5-23.6h-8.9V80.9z"/>
		<path class="st1" d="M339.8,66.5c0-19,13.4-25.9,23.8-25.9c11.2,0,21.9,6.7,21.9,27v2.7h-34.1c0.5,9,6,13,13.3,13
			c6.5,0,10.2-2.2,14-5.8l6.1,6c-5.2,5.7-12,9-21,9C351.4,92.5,339.8,84.9,339.8,66.5z M374.9,61.7C374.2,54,370.5,50,363.5,50
			c-5.6,0-10.8,3.2-11.9,11.7H374.9z"/>
		<path class="st1" d="M390.4,84.6l6.3-7c3.8,3.2,9.3,5.9,15.7,5.9c6.2,0,10-1.6,10-5.7c0-4-5.1-5.3-11.1-6.7
			c-8.6-2-18.8-4.2-18.8-15.8c0-8.7,7.5-14.7,18.5-14.7c9.5,0,15.3,2.7,20.5,7l-5.5,7.5c-3.7-3-9.6-5.5-14.1-5.5
			c-6.4,0-8.5,2.3-8.5,5.1c0,4,5,5.3,10.9,6.6c8.6,1.9,19,4,19,15.7c0,10.5-9.5,15.4-20.9,15.4C403.2,92.5,394.9,89.2,390.4,84.6z"
			/>
		<path class="st1" d="M441.2,32.9V22.8H453v10.1H441.2z M441.2,91.5V41.5h11.7v49.9H441.2z"/>
		<path class="st1" d="M458.7,98.6c0-5,3.1-8.6,8.2-10.5c-2.5-1.3-3.9-3.4-3.9-6.1c0-3.8,3-6.9,6.8-9.1c-5.1-3.2-7.9-8.3-7.9-14.4
			c0-10.2,7.9-17.9,21-17.9c6.9,0,11.9,2.3,15.3,5.3c3.2-2.5,8.3-4.5,12.4-4.9v9.4c-2.3,0-5.5,0.3-8.7,1.3c1.1,1.8,1.8,4.1,1.8,6.8
			c0,10.4-7.8,17.8-20.8,17.8c-2.8,0-4.5-0.4-7-1c-1.5,0.8-2.5,1.9-2.5,3.2c0,2,1.3,2.6,5.7,3l8.8,0.6c14.8,0.9,20.6,4.9,20.6,13.6
			c0,10.2-10.3,15.2-25.8,15.2C465.5,110.8,458.7,105.8,458.7,98.6z M498.2,96.6c0-3.6-2.5-4.9-12.7-5.5l-8.6-0.6c-1,0-2-0.1-3-0.3
			c-3.3,1.5-4.6,3.9-4.6,6.4c0,4.4,5.1,5.8,15.2,5.8C493,102.4,498.2,100.2,498.2,96.6z M493.1,58.8c0-6.2-3.6-9.6-10.2-9.6
			c-6.4,0-10.2,3.5-10.2,9.6c0,6.1,3.9,9.4,10.2,9.4C489.3,68.2,493.1,64.9,493.1,58.8z"/>
		<path class="st1" d="M516.9,91.5V41.5h11.6v8c3.8-4.3,9.6-8.9,17.9-8.9c9.1,0,14.8,4.7,14.8,14.6v36.3h-11.6v-33
			c0-5.5-2.3-8.3-7.5-8.3c-5.1,0-9.3,2.5-13.5,6.5v34.8H516.9z"/>
	</g>
</g>
</svg>
