<?xml version="1.0" encoding="utf-8"?>
<!-- Generator: Adobe Illustrator 24.1.0, SVG Export Plug-In . SVG Version: 6.00 Build 0)  -->
<svg version="1.1" id="FabShop" xmlns="http://www.w3.org/2000/svg" xmlns:xlink="http://www.w3.org/1999/xlink" x="0px" y="0px"
	 viewBox="0 0 477.3 115.5" style="enable-background:new 0 0 477.3 115.5;" xml:space="preserve">
<style type="text/css">
	.st0{fill:#363545;}
	.st1{fill:#005F9E;}
</style>
<g id="Product_4_">
	<path class="st0" d="M107.9,91.6V22h43.8V33h-32.1v18.6h23.2V62h-23.2v29.6H107.9z"/>
	<path class="st0" d="M150.8,79.6c0-10.8,9.2-18,32.5-20.7v-1.5c0-5-2.6-7.1-8.2-7.1c-7,0-12.6,3.4-16.8,6.8l-5.6-7.2
		c5.4-4.9,13.7-9,24.1-9c13.3,0,18,6.4,18,18v20.6c0,6,0.4,9.7,1.4,12.2h-11.7c-0.7-2.1-1.1-3.6-1.1-6.4c-5.1,5.2-11,7.1-18.4,7.1
		C156.9,92.4,150.8,87.8,150.8,79.6z M183.4,77.7v-11c-13.8,1.9-21.1,5.3-21.1,10.7c0,3.9,2.7,6,7,6
		C175.1,83.4,179.7,81.2,183.4,77.7z"/>
	<path class="st0" d="M216.7,86.1v5.5h-11.6V22h11.6v26.2c3.3-3.9,8.5-7.5,15.9-7.5c11.4,0,19.7,8.6,19.7,25.8s-8.6,25.8-21.3,25.8
		C225.6,92.4,220.3,90.2,216.7,86.1z M240.7,66.7c0-10.5-4.5-16.1-11.9-16.1c-4.8,0-9.4,3-12.1,6.3v20c3.1,4,7.6,6.2,11.7,6.2
		C237.2,83.1,240.7,77.8,240.7,66.7z"/>
	<path class="st0" d="M258.3,75.2l9.3-4.9c4.1,8.2,10.5,12.1,19.2,12.1c8.5,0,14.2-2.7,14.2-9c0-6-4.3-8.8-15.8-12.2
		c-13.4-3.9-24.3-7.6-24.3-20.9c0-11.8,9.7-19.6,23.8-19.6c13.7,0,21.8,6.8,26,14.9l-8.6,5.9c-4.1-7-10.1-10.2-17.6-10.2
		c-7.7,0-12.1,2.8-12.1,7.9c0,6.5,5,8.6,16.4,12c13.2,3.9,23.7,8.2,23.7,21.2c0,11.4-9.7,20.3-26.2,20.3
		C272.5,92.9,262.7,85.8,258.3,75.2z"/>
	<path class="st0" d="M321.2,91.6V22h11.7v26.4c3.2-3.4,9.2-7.7,18.2-7.7c8.7,0,14.4,5.2,14.4,15v35.8h-11.7V58.7
		c0-5.5-2.3-8.1-7.4-8.1s-9.3,2.6-13.5,6.5v34.5H321.2z"/>
	<path class="st0" d="M373.3,66.7c0-18.4,12.1-25.9,24.3-25.9c12.1,0,24.3,7.5,24.3,25.9c0,18.2-12.2,25.9-24.3,25.9
		S373.3,84.9,373.3,66.7z M410.4,66.7c0-9.3-3.9-16.1-12.7-16.1c-8.4,0-12.7,6-12.7,16.1c0,9.5,3.9,16.3,12.7,16.3
		C406,83,410.4,76.9,410.4,66.7z"/>
	<path class="st0" d="M430.1,110.4V41.7h11.6v6.6c3.3-3.9,8.5-7.5,15.9-7.5c11.4,0,19.7,8.6,19.7,25.8s-8.6,25.8-21.3,25.8
		c-5.4,0-10.6-2.2-14.3-6.3v24.3H430.1z M465.8,66.7c0-10.5-4.5-16.1-11.9-16.1c-4.8,0-9.4,3-12.1,6.3v20c3.1,4,7.6,6.2,11.7,6.2
		C462.2,83.1,465.8,77.8,465.8,66.7z"/>
</g>
<g>
	<g>
		<polygon class="st1" points="40,78 75,57.7 50,43.3 40,49.1 		"/>
		<polygon class="st1" points="0,31.8 0,98.2 30,115.5 30,49.1 		"/>
		<polygon class="st1" points="5,23.1 12.5,27.4 35,40.4 52.5,30.3 57.5,27.4 62.5,24.5 75,17.3 45,0 		"/>
	</g>
</g>
</svg>
