<svg id="Layer_2" data-name="Layer 2" xmlns="http://www.w3.org/2000/svg" viewBox="0 0 492.7 103.92"><defs><style>.cls-1{fill:#005f9e;}.cls-2{fill:#363545;}</style></defs><polygon class="cls-1" points="57.5 41.86 57.5 21.65 75 31.75 90 23.09 50 0 10 23.09 25 31.75 42.5 21.65 42.5 41.86 50 46.19 57.5 41.86"/><path class="cls-1" d="M50,57.73,0,28.87V86.6l15,8.66V83.71l35,20.21L85,83.71V95.27l15-8.67V28.87ZM15,66.38V54.85L50,75.06,85,54.85V66.4L50,86.6Z"/><path class="cls-2" d="M132.35,92.74,157,22.9h11.56l24.62,69.84h-12l-5.64-16.55H149.08l-5.73,16.55Zm20.3-26.89H172l-9.5-28.19h-.19Z"/><path class="cls-2" d="M200.11,92.74V23.18h11.66V92.74Z"/><path class="cls-2" d="M222.78,92.74V23.18h11.65V92.74Z"/><path class="cls-2" d="M246.58,92.74V23.18h24.35c15,0,26.79,5.26,26.79,21.34,0,16.82-12.88,21.8-27.17,21.8H258.24V92.74Zm11.66-36.66h12.88c10.34,0,15-3.2,15-11.19,0-7.71-4.7-11-15.14-11H258.24Z"/><path class="cls-2" d="M304.88,92.74V42.82h11.56V51h.19c3.1-5,8.46-9.11,18-9.11h.75L335,52.51a30.36,30.36,0,0,0-3.1-.19c-7.43,0-12.13,3.48-15.42,8.83V92.74Z"/><path class="cls-2" d="M341.5,34.18V24.12h11.85V34.18Zm.1,58.56V42.82h11.65V92.74Z"/><path class="cls-2" d="M360.15,85.87l6.3-7.05a24.59,24.59,0,0,0,15.7,5.93c6.2,0,10-1.6,10-5.74S387,73.75,381,72.34c-8.55-2-18.8-4.23-18.8-15.79,0-8.74,7.52-14.66,18.52-14.66,9.49,0,15.32,2.72,20.49,7l-5.55,7.52c-3.66-3-9.58-5.45-14.1-5.45-6.39,0-8.46,2.26-8.46,5.08,0,4,5,5.26,10.91,6.58,8.55,1.88,19,4,19,15.69,0,10.53-9.49,15.42-20.86,15.42C372.94,93.77,364.66,90.48,360.15,85.87Z"/><path class="cls-2" d="M408.29,67.83c0-19,13.44-25.94,23.78-25.94,11.19,0,21.9,6.67,21.9,27v2.73H419.85c.47,9,6,13,13.35,13,6.48,0,10.24-2.16,14-5.83l6.11,6c-5.17,5.73-12,9-21,9C419.85,93.77,408.29,86.16,408.29,67.83Zm35.06-4.89c-.66-7.61-4.42-11.66-11.37-11.66-5.64,0-10.81,3.2-11.94,11.66Z"/><path class="cls-2" d="M462.25,92.74V42.82h11.56V51H474c3.11-5,8.46-9.11,18-9.11h.75l-.38,10.62a30.36,30.36,0,0,0-3.1-.19c-7.42,0-12.12,3.48-15.41,8.83V92.74Z"/></svg>