<svg id="Layer_2" data-name="Layer 2" xmlns="http://www.w3.org/2000/svg" viewBox="0 0 851.58 112.58"><defs><style>.cls-1{fill:#005f9e;}.cls-2{fill:#363545;}</style></defs><polygon class="cls-1" points="42.47 21.65 42.47 41.86 49.97 46.19 57.47 41.86 57.47 21.65 74.97 31.75 89.97 23.09 49.97 0 9.97 23.09 24.97 31.75 42.47 21.65"/><polygon class="cls-1" points="55 72.17 55 83.72 70 75.06 70 63.51 100 46.19 100 28.87 55 54.85 55 72.17 55 72.17"/><polygon class="cls-1" points="85 66.39 85 77.94 55 95.26 55 112.58 85 95.26 100 86.6 100 57.73 85 66.39"/><polygon class="cls-1" points="0 28.87 0 46.19 15 54.85 15 95.26 30 103.92 30 63.51 45 72.17 45 54.85 0 28.87"/><path class="cls-2" d="M154,92.74V34.08H132.54V23.18h54.61v10.9H165.72V92.74Z"/><path class="cls-2" d="M185.41,92.74V42.82H197V51h.19c3.1-5,8.46-9.11,18-9.11h.76l-.38,10.62a30.36,30.36,0,0,0-3.1-.19c-7.43,0-12.13,3.48-15.42,8.83V92.74Z"/><path class="cls-2" d="M219.29,80.7c0-10.81,9.21-18,32.52-20.67V58.52c0-5-2.63-7.14-8.18-7.14-6.95,0-12.59,3.38-16.82,6.77l-5.64-7.24a35.73,35.73,0,0,1,24.06-9c13.35,0,18,6.39,18,18V80.52c0,6,.38,9.68,1.41,12.22H252.94a18.1,18.1,0,0,1-1.13-6.4c-5.08,5.17-11,7.15-18.42,7.15C225.3,93.49,219.29,89,219.29,80.7Zm32.52-1.88v-11c-13.82,1.88-21.15,5.26-21.15,10.71,0,3.95,2.73,6,7,6A19.93,19.93,0,0,0,251.81,78.82Z"/><path class="cls-2" d="M270.91,67.92c0-17.29,8.56-26,21.34-26a19.05,19.05,0,0,1,14.29,6.29v-25H318.1V80.52c0,6,.37,9.68,1.5,12.22H307.66A18.94,18.94,0,0,1,306.54,86c-3.67,4.23-8.46,7.52-15.89,7.52C279.28,93.49,270.91,85.22,270.91,67.92Zm35.63,9.78v-20a15.23,15.23,0,0,0-11.75-6.21c-8.75,0-12.32,5.64-12.32,16.73C282.47,78.73,287,84,294.41,84,299.2,84,303.81,81,306.54,77.7Z"/><path class="cls-2" d="M326.09,67.83c0-19,13.44-25.94,23.78-25.94,11.18,0,21.9,6.67,21.9,27v2.73H337.65c.47,9,6,13,13.35,13,6.48,0,10.24-2.16,14-5.83l6.11,6c-5.17,5.73-12,9-21,9C337.65,93.77,326.09,86.16,326.09,67.83Zm35.06-4.89c-.66-7.61-4.42-11.66-11.37-11.66-5.64,0-10.81,3.2-11.94,11.66Z"/><path class="cls-2" d="M403.26,76.38l9.31-4.89c4.13,8.18,10.52,12.13,19.17,12.13,8.46,0,14.19-2.73,14.19-9,0-6-4.32-8.84-15.79-12.22-13.44-4-24.25-7.62-24.25-20.87,0-11.84,9.68-19.65,23.78-19.65,13.73,0,21.81,6.77,26,15l-8.55,5.92c-4.14-7-10.06-10.15-17.58-10.15-7.71,0-12.13,2.82-12.13,7.9,0,6.48,5,8.64,16.36,12C447,56.36,457.5,60.68,457.5,73.75c0,11.37-9.69,20.3-26.23,20.3C417.45,94.05,407.68,86.91,403.26,76.38Z"/><path class="cls-2" d="M464.06,67.83c0-19,13.44-25.94,23.78-25.94,11.19,0,21.9,6.67,21.9,27v2.73H475.62c.47,9,6,13,13.35,13,6.48,0,10.24-2.16,14-5.83l6.11,6c-5.17,5.73-12,9-21,9C475.62,93.77,464.06,86.16,464.06,67.83Zm35.06-4.89c-.66-7.61-4.42-11.66-11.37-11.66-5.64,0-10.81,3.2-11.94,11.66Z"/><path class="cls-2" d="M518,92.74V42.82h11.56V51h.19c3.1-5,8.45-9.11,18-9.11h.75l-.38,10.62a30.36,30.36,0,0,0-3.1-.19c-7.42,0-12.12,3.48-15.41,8.83V92.74Z"/><path class="cls-2" d="M570,92.83l-18-50H564.1l12.22,36.85h.19l12.12-36.85h11.19l-18.05,50Z"/><path class="cls-2" d="M605.61,34.18V24.12h11.85V34.18Zm.1,58.56V42.82h11.65V92.74Z"/><path class="cls-2" d="M625.63,67.83c0-19.08,12.88-25.94,24-25.94,12.41,0,17.67,6.86,20.68,14.56l-9.77,3.48c-2-5.64-5.55-8.36-11.1-8.36-6.58,0-12.12,4.32-12.12,16.26,0,10.62,4.32,16.45,11.94,16.45,5.26,0,8.93-1.6,11.65-8.65l9.59,3.48c-3.57,8-9.49,14.66-21.53,14.66C637.38,93.77,625.63,86.06,625.63,67.83Z"/><path class="cls-2" d="M675,67.83c0-19,13.44-25.94,23.78-25.94,11.18,0,21.9,6.67,21.9,27v2.73H686.51c.47,9,6,13,13.34,13,6.49,0,10.25-2.16,14-5.83l6.11,6c-5.17,5.73-12,9-21,9C686.51,93.77,675,86.16,675,67.83ZM710,62.94c-.66-7.61-4.42-11.66-11.38-11.66-5.64,0-10.81,3.2-11.93,11.66Z"/><path class="cls-2" d="M729.72,23.18h6.48V92.74h-6.48Z"/><path class="cls-2" d="M749,24.78h6.86v7H749Zm.19,18.42h6.48V92.74h-6.48Z"/><path class="cls-2" d="M763.54,43.2h7L785.16,85h.19L799.91,43.2h6.58L788.26,92.92h-6.49Z"/><path class="cls-2" d="M809.66,67.92c0-17.58,11.28-25.66,21.72-25.66,11.56,0,20.2,8.84,20.2,25.76v1.22H816.15c.09,12.22,7.05,19.08,15.6,19.08,7.43,0,11.66-3.2,15.42-9l4,3.2c-4.32,7-10.43,11.28-19.83,11.28C819.81,93.77,809.66,84.84,809.66,67.92Zm35.63-3.85c-.66-9.4-5.17-16.36-14-16.36-7.14,0-13.82,5.17-15,16.36Z"/></svg>