<?xml version="1.0" encoding="utf-8"?>
<!-- Generator: Adobe Illustrator 24.1.0, SVG Export Plug-In . SVG Version: 6.00 Build 0)  -->
<svg version="1.1" id="Estimation_MEP" xmlns="http://www.w3.org/2000/svg" xmlns:xlink="http://www.w3.org/1999/xlink" x="0px"
	 y="0px" viewBox="0 0 802.2 95.3" style="enable-background:new 0 0 802.2 95.3;" xml:space="preserve">
<style type="text/css">
	.st0{fill:#005F9E;}
	.st1{fill:#363545;}
</style>
<g>
	<g>
		<g>
			<g>
				<polygon class="st0" points="55,37.5 90,17.3 90,0 55,20.2 35,8.7 35,26 				"/>
			</g>
		</g>
	</g>
	<g>
		<g>
			<g>
				<polygon class="st0" points="60,46.2 60,86.6 75,95.3 75,54.8 95,43.3 80,34.6 				"/>
			</g>
		</g>
	</g>
	<g>
		<g>
			<g>
				<polygon class="st0" points="50,46.2 15,26 0,34.6 35,54.8 35,77.9 50,69.3 				"/>
			</g>
		</g>
	</g>
</g>
<g id="Product_3_">
	<path class="st1" d="M132.9,82.6V13.1h44.9V24h-33.2v17.3H169v10.4h-24.3v20.2h35.1v10.7H132.9z"/>
	<path class="st1" d="M185.3,75.8l6.3-7c3.8,3.2,9.3,5.9,15.7,5.9c6.2,0,10-1.6,10-5.7c0-4-5.1-5.3-11.1-6.7
		c-8.6-2-18.8-4.2-18.8-15.8c0-8.7,7.5-14.7,18.5-14.7c9.5,0,15.3,2.7,20.5,7l-5.5,7.5c-3.7-3-9.6-5.5-14.1-5.5
		c-6.4,0-8.5,2.3-8.5,5.1c0,4,5,5.3,10.9,6.6c8.6,1.9,19,4,19,15.7c0,10.5-9.5,15.4-20.9,15.4C198.1,83.7,189.9,80.4,185.3,75.8z"/>
	<path class="st1" d="M240.7,69.6V41.9H232v-9.2h8.6V15.3h11.6v17.4h12.9v9.2h-12.9v24.7c0,5.4,1.6,7.5,7.3,7.5c1.7,0,3.9-0.3,5-0.7
		v9.1c-1.2,0.3-5.5,0.7-8.5,0.7C243.4,83.3,240.7,78.6,240.7,69.6z"/>
	<path class="st1" d="M271.8,24.1V14h11.8v10.1H271.8z M271.9,82.6V32.7h11.7v49.9H271.9z"/>
	<path class="st1" d="M294.4,82.6V32.7h11.6v6.9c3.9-4.2,9.5-7.8,17.1-7.8c8.4,0,11.7,3.3,13.6,8.2c3.9-4.3,9.9-8.2,17.5-8.2
		c10.2,0,14.6,6.1,14.6,15v35.8h-11.6V49.7c0-5.5-1.6-8.1-7-8.1c-4.7,0-8.5,2.6-12.8,6.5v34.5h-11.6V49.7c0-5.5-1.6-8.1-7-8.1
		c-4.6,0-8.5,2.6-12.8,6.5v34.5H294.4z"/>
	<path class="st1" d="M376.1,70.6c0-10.8,9.2-18,32.5-20.7v-1.5c0-5-2.6-7.1-8.2-7.1c-7,0-12.6,3.4-16.8,6.8l-5.6-7.2
		c5.4-4.9,13.7-9,24.1-9c13.3,0,18,6.4,18,18v20.6c0,6,0.4,9.7,1.4,12.2h-11.7c-0.7-2.1-1.1-3.6-1.1-6.4c-5.1,5.2-11,7.1-18.4,7.1
		C382.1,83.4,376.1,78.9,376.1,70.6z M408.6,68.7v-11c-13.8,1.9-21.1,5.3-21.1,10.7c0,3.9,2.7,6,7,6
		C400.3,74.5,404.9,72.2,408.6,68.7z"/>
	<path class="st1" d="M434.2,69.6V41.9h-8.6v-9.2h8.6V15.3h11.6v17.4h12.9v9.2h-12.9v24.7c0,5.4,1.6,7.5,7.3,7.5
		c1.7,0,3.9-0.3,5-0.7v9.1c-1.2,0.3-5.5,0.7-8.5,0.7C436.9,83.3,434.2,78.6,434.2,69.6z"/>
	<path class="st1" d="M465.3,24.1V14h11.8v10.1H465.3z M465.4,82.6V32.7h11.7v49.9H465.4z"/>
	<path class="st1" d="M485.3,57.7c0-18.4,12.1-25.9,24.3-25.9c12.1,0,24.3,7.5,24.3,25.9c0,18.2-12.2,25.9-24.3,25.9
		S485.3,76,485.3,57.7z M522.4,57.7c0-9.3-3.9-16.1-12.7-16.1c-8.4,0-12.7,6-12.7,16.1c0,9.5,3.9,16.3,12.7,16.3
		C518.1,74,522.4,68,522.4,57.7z"/>
	<path class="st1" d="M542.2,82.6V32.7h11.6v8c3.8-4.3,9.6-8.9,17.9-8.9c9.1,0,14.8,4.7,14.8,14.6v36.3h-11.6v-33
		c0-5.5-2.3-8.3-7.5-8.3c-5.1,0-9.3,2.5-13.5,6.5v34.8H542.2z"/>
</g>
<g>
	<path class="st1" d="M621.7,13.1h8.6L653.7,74h0.2L677,13.1h8.8v69.6h-6.7V24.4H679c-0.9,3.1-2.6,7.7-4.3,12.2l-18,46.1h-6.1
		l-18-46.1c-1.7-4.5-2.8-7.4-4.3-12.4h-0.2v58.5h-6.2V13.1z"/>
	<path class="st1" d="M701.2,13.1h41.5v6.2h-34.9v23.6h26v6h-26v27.6h36.8v6.1h-43.5V13.1z"/>
	<path class="st1" d="M754.7,13.1h23.1c15.1,0,24.3,6.2,24.3,19c0,14-10.3,19.7-25,19.7h-15.8v30.8h-6.7V13.1z M777.6,45.9
		c11.5,0,17.9-3.6,17.9-13.6c0-9.4-6.3-13.1-18-13.1h-16.2v26.7H777.6z"/>
</g>
</svg>
