<?xml version="1.0" encoding="utf-8"?>
<!-- Generator: Adobe Illustrator 24.1.0, SVG Export Plug-In . SVG Version: 6.00 Build 0)  -->
<svg version="1.1" id="Accubid_Anywhere" xmlns="http://www.w3.org/2000/svg" xmlns:xlink="http://www.w3.org/1999/xlink" x="0px"
	 y="0px" viewBox="0 0 912.7 97.3" style="enable-background:new 0 0 912.7 97.3;" xml:space="preserve">
<style type="text/css">
	.st0{fill:#363545;}
	.st1{fill:#005F9E;}
</style>
<g>
	<path class="st0" d="M529,8.5h7.2l24.6,69.8h-7l-7.4-21.4h-28.2l-7.4,21.4h-6.5L529,8.5z M544.4,50.9l-11.9-34.6h-0.2l-11.9,34.6
		H544.4z"/>
	<path class="st0" d="M569.5,28.8h6.5v7.8c4.8-4.7,11.1-8.7,18.9-8.7c9.8,0,14.8,5.5,14.8,14.7v35.8h-6.5V43.7
		c0-7-3.1-10.3-9.9-10.3c-6.4,0-11.7,3.3-17.3,8.6v36.3h-6.5V28.8z"/>
	<path class="st0" d="M614,96.3l1.5-5.4c1.4,0.4,3.6,0.8,6.9,0.8c5.4,0,8.1-2.4,10.2-7.6l2.1-5.5l-19.2-49.8h7l15.4,41.8h0.2
		l15.3-41.8h6.8L638.8,84c-3.3,8.8-7,13.3-16.5,13.3C618.5,97.3,616,96.8,614,96.3z"/>
	<path class="st0" d="M665.7,28.8h6.8l7,24.5c1.8,6.3,2.9,10.4,4.6,16.8h0.2c1.8-7,2.7-10.5,4.5-16.8l6.8-24.5h5.9l6.9,25
		c1.8,6,2.7,9.9,4.3,16.4h0.2c1.8-6.7,2.7-10.2,4.5-16.2l7.2-25.2h6.3l-15.2,49.5h-6l-11.2-40.7h-0.2l-11.4,40.7h-5.9L665.7,28.8z"
		/>
	<path class="st0" d="M738.7,8.7h6.5v27.8c4.8-4.7,11.1-8.7,18.9-8.7c9.8,0,14.8,5.5,14.8,14.7v35.8h-6.5V43.7
		c0-7-3.1-10.3-9.9-10.3c-6.4,0-11.7,3.3-17.3,8.6v36.3h-6.5V8.7z"/>
	<path class="st0" d="M788.6,53.5c0-17.6,11.3-25.7,21.7-25.7c11.6,0,20.2,8.8,20.2,25.8v1.2h-35.4c0.1,12.2,7,19.1,15.6,19.1
		c7.4,0,11.7-3.2,15.4-9l4,3.2c-4.3,7-10.4,11.3-19.8,11.3C798.8,79.3,788.6,70.4,788.6,53.5z M824.2,49.6
		c-0.7-9.4-5.2-16.4-14-16.4c-7.1,0-13.8,5.2-15,16.4H824.2z"/>
	<path class="st0" d="M840.5,28.8h6.5v9.8h0.2c3.9-6.1,9.9-10.7,19.6-10.7h1.1l-0.7,6c0,0-1.8-0.1-2-0.1c-8.1,0-14.5,4.5-18.3,12.3
		v32.2h-6.5V28.8z"/>
	<path class="st0" d="M870.7,53.5c0-17.6,11.3-25.7,21.7-25.7c11.6,0,20.2,8.8,20.2,25.8v1.2h-35.4c0.1,12.2,7,19.1,15.6,19.1
		c7.4,0,11.7-3.2,15.4-9l4,3.2c-4.3,7-10.4,11.3-19.8,11.3C880.9,79.3,870.7,70.4,870.7,53.5z M906.4,49.6
		c-0.7-9.4-5.2-16.4-14-16.4c-7.1,0-13.8,5.2-15,16.4H906.4z"/>
</g>
<g>
	<g>
		<polygon class="st1" points="67.3,30 55.8,50 76.9,86.6 100,86.6 		"/>
	</g>
	<g>
		<polygon class="st1" points="61.5,20 50,0 17.3,56.6 40.4,56.6 		"/>
	</g>
	<g>
		<polygon class="st1" points="11.5,66.6 0,86.6 65.4,86.6 53.8,66.6 		"/>
	</g>
</g>
<g id="Product_2_">
	<path class="st0" d="M132.3,78.3L157,8.5h11.6l24.6,69.8h-12l-5.6-16.5h-26.4l-5.7,16.5H132.3z M152.7,51.4H172l-9.5-28.2h-0.2
		L152.7,51.4z"/>
	<path class="st0" d="M195.5,53.4c0-19.1,12.9-25.9,24-25.9c12.4,0,17.7,6.9,20.7,14.6l-9.8,3.5c-2-5.6-5.5-8.4-11.1-8.4
		c-6.6,0-12.1,4.3-12.1,16.3c0,10.6,4.3,16.4,11.9,16.4c5.3,0,8.9-1.6,11.7-8.6l9.6,3.5c-3.6,8-9.5,14.7-21.5,14.7
		C207.3,79.3,195.5,71.6,195.5,53.4z"/>
	<path class="st0" d="M244.8,53.4c0-19.1,12.9-25.9,24-25.9c12.4,0,17.7,6.9,20.7,14.6l-9.8,3.5c-2-5.6-5.5-8.4-11.1-8.4
		c-6.6,0-12.1,4.3-12.1,16.3c0,10.6,4.3,16.4,11.9,16.4c5.3,0,8.9-1.6,11.7-8.6l9.6,3.5c-3.6,8-9.5,14.7-21.5,14.7
		C256.6,79.3,244.8,71.6,244.8,53.4z"/>
	<path class="st0" d="M296.2,64.2V28.4h11.7v33.1c0,5.5,2.3,8.1,7.4,8.1s9.3-2.6,13.5-6.5V28.4h11.7v49.9h-11.7v-6.8
		c-3.2,3.4-9.2,7.7-18.2,7.7C301.8,79.2,296.2,74.1,296.2,64.2z"/>
	<path class="st0" d="M362.7,72.8v5.5h-11.6V8.7h11.6V35c3.3-3.9,8.5-7.5,15.9-7.5c11.4,0,19.7,8.6,19.7,25.8s-8.6,25.8-21.3,25.8
		C371.6,79.1,366.4,76.9,362.7,72.8z M386.8,53.4c0-10.5-4.5-16.1-11.9-16.1c-4.8,0-9.4,3-12.1,6.3v20c3.1,4,7.6,6.2,11.7,6.2
		C383.2,69.8,386.8,64.5,386.8,53.4z"/>
	<path class="st0" d="M406.9,19.7V9.7h11.8v10.1H406.9z M406.9,78.3V28.4h11.7v49.9H406.9z"/>
	<path class="st0" d="M427.1,53.5c0-17.3,8.6-26,21.3-26c5.4,0,10.6,2.2,14.3,6.3v-25h11.6v57.3c0,6,0.4,9.7,1.5,12.2h-11.9
		c-0.7-1.4-1.1-4.2-1.1-6.8c-3.7,4.2-8.5,7.5-15.9,7.5C435.4,79.1,427.1,70.8,427.1,53.5z M462.7,63.3v-20c-3.1-4-7.6-6.2-11.7-6.2
		c-8.7,0-12.3,5.6-12.3,16.7c0,10.5,4.5,15.8,11.9,15.8C455.4,69.6,460,66.6,462.7,63.3z"/>
</g>
</svg>
