<svg id="Layer_2" data-name="Layer 2" xmlns="http://www.w3.org/2000/svg" viewBox="0 0 658.71 112.58"><defs><style>.cls-1{fill:#363545;}.cls-2{fill:#005f9e;}</style></defs><path class="cls-1" d="M137.9,92.74V23.18h11.74V82H181.7V92.74Z"/><path class="cls-1" d="M187.71,67.36V23.18h11.75V66.32c0,10.63,4.61,16.92,15.32,16.92S230,77.13,230,66.42V23.18h11.56V67.26c0,15.79-8.93,26.6-26.88,26.6C195.52,93.86,187.71,83.15,187.71,67.36Z"/><path class="cls-1" d="M251.2,57.77c0-23.31,13.07-35.91,30.55-35.91,16.17,0,23.87,8.93,27,21.62l-11.19,3.2c-2.63-9.21-6.67-13.91-15.88-13.91-11.75,0-18.62,9.12-18.62,24.91,0,16.54,7,25.66,18.8,25.66,9,0,14.1-4.52,16.73-15l11.19,2.54c-3.38,13.82-11.94,23.12-28,23.12C263.89,94.05,251.2,81.74,251.2,57.77Z"/><path class="cls-1" d="M319.1,92.74V23.18h11.75V55.51L358.2,23.18h13.91L348.42,50,375,92.74H361.58L340.72,59,330.85,69.9V92.74Z"/><path class="cls-1" d="M382.82,92.74V23.18h11.84V92.74Z"/><path class="cls-1" d="M408.28,92.74V23.18h11.94l32.9,49.63h.19V23.18h10.9V92.74H453.5L419.38,42.07h-.19V92.74Z"/><path class="cls-1" d="M473.27,76.38l9.3-4.89c4.14,8.18,10.53,12.13,19.18,12.13,8.45,0,14.19-2.73,14.19-9,0-6-4.33-8.84-15.79-12.22-13.44-4-24.25-7.62-24.25-20.87,0-11.84,9.68-19.65,23.78-19.65,13.72,0,21.8,6.77,26,15l-8.55,5.92C513,35.78,507.1,32.58,499.58,32.58c-7.7,0-12.12,2.82-12.12,7.9,0,6.48,5,8.64,16.35,12C517,56.36,527.5,60.68,527.5,73.75c0,11.37-9.68,20.3-26.22,20.3C487.46,94.05,477.68,86.91,473.27,76.38Z"/><path class="cls-1" d="M536.85,23.18h6.48V92.74h-6.48Z"/><path class="cls-1" d="M556.09,24.78H563v7h-6.86Zm.18,18.42h6.49V92.74h-6.49Z"/><path class="cls-1" d="M570.67,43.2h7L592.28,85h.19L607,43.2h6.58L595.39,92.92H588.9Z"/><path class="cls-1" d="M616.79,67.92c0-17.58,11.28-25.66,21.71-25.66,11.56,0,20.21,8.84,20.21,25.76v1.22H623.28c.09,12.22,7.05,19.08,15.6,19.08,7.42,0,11.65-3.2,15.41-9l4.05,3.2c-4.33,7-10.44,11.28-19.84,11.28C626.94,93.77,616.79,84.84,616.79,67.92Zm35.62-3.85c-.65-9.4-5.17-16.36-14-16.36-7.14,0-13.82,5.17-15,16.36Z"/><polygon class="cls-2" points="57.5 64.95 57.5 21.65 75 31.75 90 23.09 50 0 10 23.09 25 31.75 42.5 21.65 42.5 64.95 25 54.85 25 72.17 50 86.6 75 72.17 75 54.85 57.5 64.95"/><polygon class="cls-2" points="0 28.86 15 37.53 15 77.94 45 95.26 45 112.58 0 86.6 0 28.86"/><polygon class="cls-2" points="100 28.86 85 37.53 85 77.94 55 95.26 55 112.58 100 86.6 100 28.86"/></svg>