<?xml version="1.0" encoding="utf-8"?>
<!-- Generator: Adobe Illustrator 24.1.0, SVG Export Plug-In . SVG Version: 6.00 Build 0)  -->
<svg version="1.1" id="FieldLink" xmlns="http://www.w3.org/2000/svg" xmlns:xlink="http://www.w3.org/1999/xlink" x="0px" y="0px"
	 viewBox="0 0 510.2 100" style="enable-background:new 0 0 510.2 100;" xml:space="preserve">
<style type="text/css">
	.st0{fill:#363545;}
	.st1{fill:#005F9E;}
</style>
<g id="Product_2_">
	<path class="st0" d="M132.8,90V20.4h43.8v10.9h-32.1V50h23.2v10.4h-23.2V90H132.8z"/>
	<path class="st0" d="M183.6,31.4V21.4h11.8v10.1H183.6z M183.7,90V40.1h11.7V90H183.7z"/>
	<path class="st0" d="M203.6,65.1c0-19,13.4-25.9,23.8-25.9c11.2,0,21.9,6.7,21.9,27v2.7h-34.1c0.5,9,6,13,13.3,13
		c6.5,0,10.2-2.2,14-5.8l6.1,6c-5.2,5.7-12,9-21,9C215.2,91,203.6,83.4,203.6,65.1z M238.7,60.2c-0.7-7.6-4.4-11.7-11.4-11.7
		c-5.6,0-10.8,3.2-11.9,11.7H238.7z"/>
	<path class="st0" d="M257.9,90V20.4h11.7V90H257.9z"/>
	<path class="st0" d="M278.2,65.2c0-17.3,8.6-26,21.3-26c5.4,0,10.6,2.2,14.3,6.3v-25h11.6v57.3c0,6,0.4,9.7,1.5,12.2H315
		c-0.7-1.4-1.1-4.2-1.1-6.8c-3.7,4.2-8.5,7.5-15.9,7.5C286.6,90.8,278.2,82.5,278.2,65.2z M313.8,75v-20c-3.1-4-7.6-6.2-11.7-6.2
		c-8.7,0-12.3,5.6-12.3,16.7c0,10.5,4.5,15.8,11.9,15.8C306.5,81.3,311.1,78.3,313.8,75z"/>
	<path class="st0" d="M337.6,90V20.4h11.7v58.8h32.1V90H337.6z"/>
	<path class="st0" d="M388.4,31.4V21.4h11.8v10.1H388.4z M388.5,90V40.1h11.7V90H388.5z"/>
	<path class="st0" d="M411,90V40.1h11.6v8c3.8-4.3,9.6-8.9,17.9-8.9c9.1,0,14.8,4.7,14.8,14.6V90h-11.6V57c0-5.5-2.3-8.3-7.5-8.3
		c-5.1,0-9.3,2.5-13.5,6.5V90H411z"/>
	<path class="st0" d="M465.6,90V20.4h11.6v41.5l18.9-21.8h12.7l-16.3,18.2L510.2,90H498l-12.9-23.1l-8,8.7V90H465.6z"/>
</g>
<g>
	<g id="Product_23_">
		<path class="st0" d="M132.7,90.2V20.6h43.8v10.9h-32.1v18.6h23.2v10.4h-23.2v29.6H132.7z"/>
		<path class="st0" d="M183.5,31.6V21.5h11.8v10.1H183.5z M183.6,90.2V40.2h11.7v49.9H183.6z"/>
		<path class="st0" d="M203.5,65.2c0-19,13.4-25.9,23.8-25.9c11.2,0,21.9,6.7,21.9,27V69h-34.1c0.5,9,6,13,13.3,13
			c6.5,0,10.2-2.2,14-5.8l6.1,6c-5.2,5.7-12,9-21,9C215.1,91.2,203.5,83.6,203.5,65.2z M238.6,60.4c-0.7-7.6-4.4-11.7-11.4-11.7
			c-5.6,0-10.8,3.2-11.9,11.7H238.6z"/>
		<path class="st0" d="M257.8,90.2V20.6h11.7v69.6H257.8z"/>
		<path class="st0" d="M278.1,65.3c0-17.3,8.6-26,21.3-26c5.4,0,10.6,2.2,14.3,6.3v-25h11.6v57.3c0,6,0.4,9.7,1.5,12.2h-11.9
			c-0.7-1.4-1.1-4.2-1.1-6.8c-3.7,4.2-8.5,7.5-15.9,7.5C286.5,90.9,278.1,82.6,278.1,65.3z M313.8,75.1v-20c-3.1-4-7.6-6.2-11.7-6.2
			c-8.7,0-12.3,5.6-12.3,16.7c0,10.5,4.5,15.8,11.9,15.8C306.4,81.4,311,78.4,313.8,75.1z"/>
		<path class="st0" d="M337.6,90.2V20.6h11.7v58.8h32.1v10.7H337.6z"/>
		<path class="st0" d="M388.3,31.6V21.5h11.8v10.1H388.3z M388.4,90.2V40.2h11.7v49.9H388.4z"/>
		<path class="st0" d="M410.9,90.2V40.2h11.6v8c3.8-4.3,9.6-8.9,17.9-8.9c9.1,0,14.8,4.7,14.8,14.6v36.3h-11.6v-33
			c0-5.5-2.3-8.3-7.5-8.3c-5.1,0-9.3,2.5-13.5,6.5v34.8H410.9z"/>
		<path class="st0" d="M465.5,90.2V20.6h11.6V62L496,40.2h12.7l-16.3,18.2l17.7,31.7H498L485.1,67l-8,8.7v14.4H465.5z"/>
	</g>
</g>
<g>
	<g>
		<path class="st1" d="M45,100c24.9,0,45-20.1,45-45H72.5c0,15.2-12.3,27.5-27.5,27.5S17.5,70.2,17.5,55c0-15.2,12.3-27.5,27.5-27.5
			V10C20.1,10,0,30.1,0,55C0,79.9,20.1,100,45,100z"/>
	</g>
	<g>
		<path class="st1" d="M82.5,45H100c0-24.9-20.1-45-45-45v17.5C70.2,17.5,82.5,29.8,82.5,45z"/>
	</g>
</g>
</svg>
