<?xml version="1.0" encoding="utf-8"?>
<!-- Generator: Adobe Illustrator 24.1.0, SVG Export Plug-In . SVG Version: 6.00 Build 0)  -->
<svg version="1.1" id="SysQue" xmlns="http://www.w3.org/2000/svg" xmlns:xlink="http://www.w3.org/1999/xlink" x="0px" y="0px"
	 viewBox="0 0 458.3 112.6" style="enable-background:new 0 0 458.3 112.6;" xml:space="preserve">
<style type="text/css">
	.st0{fill:#363545;}
	.st1{fill:#005F9E;}
</style>
<g id="Product_2_">
	<path class="st0" d="M134.2,76.4l9.3-4.9c4.1,8.2,10.5,12.1,19.2,12.1c8.5,0,14.2-2.7,14.2-9c0-6-4.3-8.8-15.8-12.2
		c-13.4-3.9-24.3-7.6-24.3-20.9c0-11.8,9.7-19.6,23.8-19.6c13.7,0,21.8,6.8,26,14.9l-8.6,5.9c-4.1-7-10.1-10.2-17.6-10.2
		c-7.7,0-12.1,2.8-12.1,7.9c0,6.5,5,8.6,16.4,12c13.2,3.9,23.7,8.2,23.7,21.2c0,11.4-9.7,20.3-26.2,20.3
		C148.4,94.1,138.6,86.9,134.2,76.4z"/>
	<path class="st0" d="M188.7,110.6l2.6-9.3c1.4,0.4,4.4,1,8.5,1c4.1,0,6.3-1.6,7.9-5.6l1.4-3.7l-19.2-50.2h12l12.9,36.4h0.2
		l12.8-36.4h11.5L218,98.2c-3.3,8.7-7.6,13.9-17.5,13.9C194.6,112.1,191.1,111.3,188.7,110.6z"/>
	<path class="st0" d="M240.2,85.9l6.3-7c3.8,3.2,9.3,5.9,15.7,5.9c6.2,0,10-1.6,10-5.7c0-4-5.1-5.3-11.1-6.7
		c-8.6-2-18.8-4.2-18.8-15.8c0-8.7,7.5-14.7,18.5-14.7c9.5,0,15.3,2.7,20.5,7l-5.5,7.5c-3.7-3-9.6-5.5-14.1-5.5
		c-6.4,0-8.5,2.3-8.5,5.1c0,4,5,5.3,10.9,6.6c8.6,1.9,19,4,19,15.7c0,10.5-9.5,15.4-20.9,15.4C253,93.8,244.7,90.5,240.2,85.9z"/>
	<path class="st0" d="M335.3,110.9c-14.7,0-21.7-7.4-22-17.7c-14.1-2.5-24.8-15.1-24.8-35.2c0-23.4,14.7-36.1,31.5-36.1
		c16.7,0,31.3,12.7,31.3,36.1c0,20.8-11.4,33.4-26,35.5c1.4,6.8,6.2,7.4,14.9,7.4h4.8v10H335.3z M339.4,58
		c0-16.4-7.8-25.3-19.5-25.3c-11.8,0-19.6,8.9-19.6,25.3c0,16.4,7.8,25.7,19.6,25.7C331.6,83.6,339.4,74.3,339.4,58z"/>
	<path class="st0" d="M360.2,78.6V42.8h11.7v33.1c0,5.5,2.3,8.1,7.4,8.1s9.3-2.6,13.5-6.5V42.8h11.7v49.9h-11.7V86
		c-3.2,3.4-9.2,7.7-18.2,7.7C365.8,93.7,360.2,88.5,360.2,78.6z"/>
	<path class="st0" d="M412.6,67.8c0-19,13.4-25.9,23.8-25.9c11.2,0,21.9,6.7,21.9,27v2.7h-34.1c0.5,9,6,13,13.3,13
		c6.5,0,10.2-2.2,14-5.8l6.1,6c-5.2,5.7-12,9-21,9C424.2,93.8,412.6,86.2,412.6,67.8z M447.7,62.9c-0.7-7.6-4.4-11.7-11.4-11.7
		c-5.6,0-10.8,3.2-11.9,11.7H447.7z"/>
</g>
<g>
	<g>
		<polygon class="st1" points="77.5,47.6 32.5,73.6 55,86.6 55,112.6 100,86.6 100,60.6 		"/>
		<polygon class="st1" points="40,57.7 0,34.6 0,54.7 22.6,67.8 		"/>
		<polygon class="st1" points="50,52 95,26 50,0 5,26 		"/>
		<polygon class="st1" points="5,89.5 45,112.6 45,92.4 22.4,79.3 		"/>
	</g>
</g>
</svg>
