<?xml version="1.0" encoding="utf-8"?>
<!-- Generator: Adobe Illustrator 24.1.0, SVG Export Plug-In . SVG Version: 6.00 Build 0)  -->
<svg version="1.1" id="Construction_Analytics" xmlns="http://www.w3.org/2000/svg" xmlns:xlink="http://www.w3.org/1999/xlink"
	 x="0px" y="0px" viewBox="0 0 1081.1 91.5" style="enable-background:new 0 0 1081.1 91.5;" xml:space="preserve">
<style type="text/css">
	.st0{fill:#373545;}
	.st1{fill:#005F9E;}
</style>
<g id="Product_2_">
	<path class="st0" d="M124.5,37.6c0-23.3,13.1-35.9,30.5-35.9c16.2,0,23.9,8.9,27,21.6l-11.2,3.2c-2.6-9.2-6.7-13.9-15.9-13.9
		c-11.7,0-18.6,9.1-18.6,24.9c0,16.5,7,25.7,18.8,25.7c9,0,14.1-4.5,16.7-14.9l11.2,2.5c-3.4,13.8-11.9,23.1-28,23.1
		C137.2,73.8,124.5,61.5,124.5,37.6z"/>
	<path class="st0" d="M189.4,47.6c0-18.4,12.1-25.9,24.3-25.9c12.1,0,24.3,7.5,24.3,25.9c0,18.2-12.2,25.9-24.3,25.9
		S189.4,65.9,189.4,47.6z M226.5,47.6c0-9.3-3.9-16.1-12.7-16.1c-8.4,0-12.7,6-12.7,16.1c0,9.5,3.9,16.3,12.7,16.3
		C222.1,63.9,226.5,57.9,226.5,47.6z"/>
	<path class="st0" d="M246.3,72.5V22.6h11.6v8c3.8-4.3,9.6-8.9,17.9-8.9c9.1,0,14.8,4.7,14.8,14.6v36.3h-11.6v-33
		c0-5.5-2.3-8.3-7.5-8.3c-5.1,0-9.3,2.5-13.5,6.5v34.8H246.3z"/>
	<path class="st0" d="M296.9,65.7l6.3-7c3.8,3.2,9.3,5.9,15.7,5.9c6.2,0,10-1.6,10-5.7c0-4-5.1-5.3-11.1-6.7
		c-8.6-2-18.8-4.2-18.8-15.8c0-8.7,7.5-14.7,18.5-14.7c9.5,0,15.3,2.7,20.5,7l-5.5,7.5c-3.7-3-9.6-5.5-14.1-5.5
		c-6.4,0-8.5,2.3-8.5,5.1c0,4,5,5.3,10.9,6.6c8.6,1.9,19,4,19,15.7c0,10.5-9.5,15.4-20.9,15.4C309.7,73.6,301.5,70.3,296.9,65.7z"/>
	<path class="st0" d="M352.3,59.5V31.8h-8.6v-9.2h8.6V5.2h11.6v17.4h12.9v9.2h-12.9v24.7c0,5.4,1.6,7.5,7.3,7.5c1.7,0,3.9-0.3,5-0.7
		v9.1c-1.2,0.3-5.5,0.7-8.5,0.7C355,73.2,352.3,68.5,352.3,59.5z"/>
	<path class="st0" d="M383.3,72.5V22.6h11.6v8.2h0.2c3.1-5,8.5-9.1,18-9.1h0.8l-0.4,10.6c-0.6-0.1-2.4-0.2-3.1-0.2
		c-7.4,0-12.1,3.5-15.4,8.8v31.6H383.3z"/>
	<path class="st0" d="M419.5,58.4V22.6h11.7v33.1c0,5.5,2.3,8.1,7.4,8.1s9.3-2.6,13.5-6.5V22.6h11.7v49.9h-11.7v-6.8
		c-3.2,3.4-9.2,7.7-18.2,7.7C425.2,73.5,419.5,68.3,419.5,58.4z"/>
	<path class="st0" d="M471.9,47.6c0-19.1,12.9-25.9,24-25.9c12.4,0,17.7,6.9,20.7,14.6l-9.8,3.5c-2-5.6-5.5-8.4-11.1-8.4
		c-6.6,0-12.1,4.3-12.1,16.3c0,10.6,4.3,16.4,11.9,16.4c5.3,0,8.9-1.6,11.7-8.6l9.6,3.5c-3.6,8-9.5,14.7-21.5,14.7
		C483.7,73.6,471.9,65.9,471.9,47.6z"/>
	<path class="st0" d="M529,59.5V31.8h-8.6v-9.2h8.6V5.2h11.6v17.4h12.9v9.2h-12.9v24.7c0,5.4,1.6,7.5,7.3,7.5c1.7,0,3.9-0.3,5-0.7
		v9.1c-1.2,0.3-5.5,0.7-8.5,0.7C531.7,73.2,529,68.5,529,59.5z"/>
	<path class="st0" d="M560.1,14V3.9H572V14H560.1z M560.2,72.5V22.6h11.7v49.9H560.2z"/>
	<path class="st0" d="M580.2,47.6c0-18.4,12.1-25.9,24.3-25.9c12.1,0,24.3,7.5,24.3,25.9c0,18.2-12.2,25.9-24.3,25.9
		S580.2,65.9,580.2,47.6z M617.2,47.6c0-9.3-3.9-16.1-12.7-16.1c-8.4,0-12.7,6-12.7,16.1c0,9.5,3.9,16.3,12.7,16.3
		C612.9,63.9,617.2,57.9,617.2,47.6z"/>
	<path class="st0" d="M637,72.5V22.6h11.6v8c3.8-4.3,9.6-8.9,17.9-8.9c9.1,0,14.8,4.7,14.8,14.6v36.3h-11.6v-33
		c0-5.5-2.3-8.3-7.5-8.3c-5.1,0-9.3,2.5-13.5,6.5v34.8H637z"/>
</g>
<g>
	<g>
		<polygon class="st1" points="60,8.7 75,0 90,8.7 90,66.4 75,75.1 75,17.3 		"/>
	</g>
	<g>
		<polygon class="st1" points="30,26 45,17.3 60,26 60,66.4 45,75.1 45,34.6 		"/>
	</g>
	<g>
		<polygon class="st1" points="0,43.3 15,34.6 30,43.3 30,66.4 15,75.1 15,51.9 		"/>
	</g>
</g>
<g>
	<path class="st0" d="M735.2,2.7h7.2l24.6,69.8h-7l-7.4-21.4h-28.2l-7.4,21.4h-6.5L735.2,2.7z M750.6,45.2l-11.9-34.6h-0.2
		l-11.9,34.6H750.6z"/>
	<path class="st0" d="M775.7,23h6.5v7.8c4.8-4.7,11.1-8.7,18.9-8.7c9.8,0,14.8,5.5,14.8,14.7v35.8h-6.5V37.9c0-7-3.1-10.3-9.9-10.3
		c-6.4,0-11.7,3.3-17.3,8.6v36.3h-6.5V23z"/>
	<path class="st0" d="M825,61c0-9.8,8.4-16.9,33.6-20.8v-2.5c0-6.9-3.6-10.2-10.1-10.2c-7.8,0-13.3,3.3-18.5,7.8l-3.5-4
		c5.9-5.5,12.8-9.2,22.6-9.2c11.1,0,15.9,5.9,15.9,15.8v22.5c0,6,0.4,9.7,1.4,12.2h-6.7c-0.7-2.1-1.1-4.2-1.1-7
		c-5.7,5.2-12.1,7.9-19.6,7.9C830.1,73.4,825,68.7,825,61z M858.5,60.2V44.8c-21.2,3.6-27.2,8.8-27.2,15.3c0,5.2,3.5,7.9,9,7.9
		C847.3,68,853.4,65.1,858.5,60.2z"/>
	<path class="st0" d="M877.5,3h6.5v69.6h-6.5V3z"/>
	<path class="st0" d="M890.4,90.5l1.5-5.4c1.4,0.4,3.6,0.8,6.9,0.8c5.4,0,8.1-2.4,10.2-7.6l2.1-5.5L891.9,23h7l15.4,41.8h0.2
		L929.7,23h6.8l-21.3,55.3c-3.3,8.8-7,13.3-16.5,13.3C894.9,91.5,892.4,91,890.4,90.5z"/>
	<path class="st0" d="M950.6,61V28.5h-8.6V23h8.6V5.2h6.5V23h12.9v5.5h-12.9v31.1c0,5.3,1.7,8.1,7.8,8.1c1.9,0,3.8-0.2,5.2-0.7v5.5
		c-1.5,0.3-4.1,0.6-6.4,0.6C954.1,73.2,950.6,69.5,950.6,61z"/>
	<path class="st0" d="M978.5,4.6h6.9v7h-6.9V4.6z M978.7,23h6.5v49.5h-6.5V23z"/>
	<path class="st0" d="M995.2,47.8c0-17.8,11-25.8,22.1-25.8c10.6,0,15.9,6.3,19,13.5l-5.5,2.4c-2.7-6.7-6.7-10.4-13.6-10.4
		c-7.3,0-15.4,5.3-15.4,20.1c0,13,6.6,20.3,15.2,20.3c6.9,0,10.7-3.2,14.2-10.5l5.3,2.3c-3.9,8.4-9.7,13.8-19.7,13.8
		C1005.3,73.6,995.2,64.3,995.2,47.8z"/>
	<path class="st0" d="M1042.4,64.6l4.1-3.8c3.8,4.3,8.6,7.1,15.4,7.1c8.5,0,12.9-3.1,12.9-8.6c0-5.5-3.9-7.6-13.6-9.9
		c-11.4-2.8-17.2-5.8-17.2-14.5c0-7,6.1-13,16.8-13c8.5,0,13.9,2.8,18.3,7.1l-3.7,4.3c-3.8-3.8-8.5-6.1-14.5-6.1
		c-7.7,0-10.7,3.6-10.7,7.3c0,4.8,3.4,6.8,12,8.8c12.4,3,18.8,6,18.8,15.7c0,9-8.1,14.2-19.3,14.2
		C1053,73.5,1046.2,69.7,1042.4,64.6z"/>
</g>
</svg>
