<?xml version="1.0" encoding="utf-8"?>
<!-- Generator: Adobe Illustrator 24.0.0, SVG Export Plug-In . SVG Version: 6.00 Build 0)  -->
<svg version="1.1" id="Layer_1" xmlns="http://www.w3.org/2000/svg" xmlns:xlink="http://www.w3.org/1999/xlink" x="0px" y="0px"
	 viewBox="0 0 359.1 87.7" style="enable-background:new 0 0 359.1 87.7;" xml:space="preserve">
<style type="text/css">
	.st0{fill:#363545;}
	.st1{clip-path:url(#SVGID_2_);fill:#363545;}
	.st2{clip-path:url(#SVGID_2_);fill:#00619F;}
</style>
<polygon class="st0" points="161.3,78.9 161.3,20.2 139.9,20.2 139.9,9.3 194.5,9.3 194.5,20.2 173.1,20.2 173.1,78.9 "/>
<g>
	<defs>
		<rect id="SVGID_1_" x="-0.1" y="0.1" width="359.4" height="87.7"/>
	</defs>
	<clipPath id="SVGID_2_">
		<use xlink:href="#SVGID_1_"  style="overflow:visible;"/>
	</clipPath>
	<path class="st1" d="M189.5,53.9c0-19,13.4-25.9,23.8-25.9c11.2,0,21.9,6.7,21.9,27v2.7h-34.1c0.5,9,6,13,13.3,13
		c6.5,0,10.2-2.2,14-5.8l6.1,6c-5.2,5.7-12,9-21,9C201.1,79.9,189.5,72.3,189.5,53.9 M224.5,49.1c-0.7-7.6-4.4-11.7-11.4-11.7
		c-5.6,0-10.8,3.2-11.9,11.7H224.5z"/>
	<polygon class="st1" points="243.4,78.9 243.4,9.3 255,9.3 255,50.8 273.9,28.9 286.6,28.9 270.3,47.2 288,78.9 275.9,78.9 
		263,55.7 255,64.5 255,78.9 	"/>
	<rect x="294.3" y="9.3" class="st1" width="11.7" height="69.6"/>
	<path class="st1" d="M313.8,66.8c0-10.8,9.2-18,32.5-20.7v-1.5c0-5-2.6-7.1-8.2-7.1c-7,0-12.6,3.4-16.8,6.8l-5.6-7.2
		c5.4-4.9,13.7-9,24.1-9c13.3,0,18,6.4,18,18v20.6c0,6,0.4,9.7,1.4,12.2h-11.7c-0.7-2.1-1.1-3.6-1.1-6.4c-5.1,5.2-11,7.1-18.4,7.1
		C319.8,79.6,313.8,75.1,313.8,66.8 M346.4,64.9v-11c-13.8,1.9-21.1,5.3-21.1,10.7c0,3.9,2.7,6,7,6
		C338.1,70.7,342.7,68.4,346.4,64.9"/>
	<polygon class="st2" points="24.7,0 72.5,27.6 65.2,55 100,55 114.7,0 	"/>
	<polygon class="st2" points="60.9,32.4 13.4,5 0,55 54.8,55 	"/>
	<polygon class="st2" points="7.3,65 52.6,65 46.7,87.7 	"/>
</g>
</svg>
